<?xml version="1.0" encoding="UTF-8" standalone="no"?>
<!-- Created with Inkscape (http://www.inkscape.org/) -->

<svg
   width="210mm"
   height="297mm"
   viewBox="0 0 210 297"
   version="1.1"
   id="svg47573"
   inkscape:version="1.1 (c68e22c387, 2021-05-23)"
   sodipodi:docname="logo10.svg"
   inkscape:export-filename="C:\Users\Manuel\Documents\ESTUDIOS\ESCUELA-VIRGEN-DEL-GUADALUPE\2 DAW\DIW\EDICION DE IMAGENES\INKSCAPE\logo9.png"
   inkscape:export-xdpi="96"
   inkscape:export-ydpi="96"
   xmlns:inkscape="http://www.inkscape.org/namespaces/inkscape"
   xmlns:sodipodi="http://sodipodi.sourceforge.net/DTD/sodipodi-0.dtd"
   xmlns="http://www.w3.org/2000/svg"
   xmlns:svg="http://www.w3.org/2000/svg">
  <sodipodi:namedview
     id="namedview47575"
     pagecolor="#ffffff"
     bordercolor="#666666"
     borderopacity="1.0"
     inkscape:pageshadow="2"
     inkscape:pageopacity="0.0"
     inkscape:pagecheckerboard="0"
     inkscape:document-units="mm"
     showgrid="false"
     inkscape:zoom="2.0460067"
     inkscape:cx="394.91561"
     inkscape:cy="736.31234"
     inkscape:window-width="1920"
     inkscape:window-height="1001"
     inkscape:window-x="-9"
     inkscape:window-y="-9"
     inkscape:window-maximized="1"
     inkscape:current-layer="layer6" />
  <defs
     id="defs47570" />
  <g
     inkscape:groupmode="layer"
     id="layer6"
     inkscape:label="Capa figura"
     style="display:inline;opacity:0.98710602">
    <g
       id="g10248">
      <path
         id="path2650"
         style="fill:#ff7f2a;stroke:#000000;stroke-width:0;paint-order:markers stroke fill"
         d="m 128.04912,149.15102 c -0.15421,-10e-4 -0.30848,-5.3e-4 -0.4625,0.002 -2.79575,0.15322 -5.55371,1.18076 -7.68687,3.01067 -2.59217,2.15659 -4.2427,5.38196 -4.51601,8.74106 -0.20894,2.496 -4.10472,9.89186 -10.13891,9.58288 -0.12945,-0.007 -0.23376,-0.009 -0.35812,-0.0145 -1.87169,-0.66157 -3.82442,-1.0985 -5.799127,-1.28416 -1.381929,-0.16021 -2.754177,-0.12245 -4.141348,-0.0713 -2.782072,0.24237 -3.794429,1.77138 -7.316348,0.0832 -2.344171,-1.12367 -0.885648,-4.71669 -1.35599,-7.06468 -0.518242,-3.17153 -3.482977,-5.72689 -6.700366,-5.73195 -0.170238,-10e-4 -0.342509,-0.028 -0.512114,-0.015 -2.406029,0.12036 -4.704281,1.53874 -5.819799,3.68505 -1.38371,2.48814 -1.001816,5.80802 0.915188,7.91631 1.478325,1.7277 6.544196,2.46409 6.508131,5.61258 -2.269688,2.2045 -5.183476,7.28276 -6.446118,10.18542 -1.125799,2.5593 -1.808752,5.3199 -1.998329,8.1101 -0.234664,2.97699 1.600565,5.78034 -0.583943,7.80728 -1.951509,1.81074 -6.046946,1.43915 -8.699728,1.21078 -0.583136,-0.0757 -1.180451,0.004 -1.76785,-0.0104 v 5.3e-4 c -2.139934,0.22604 -4.220435,1.08151 -5.822384,2.5337 -1.963531,1.74858 -3.193137,4.28308 -3.348633,6.90965 -0.165338,2.62354 0.747395,5.2896 2.485636,7.26416 1.730471,1.98017 4.254903,3.22841 6.879686,3.40909 3.682825,0.27785 7.456114,-1.63272 9.334828,-4.83175 1.463405,-5.44397 8.268758,-6.16301 12.734623,-1.89911 2.489742,1.61779 5.281258,2.74148 8.178313,3.37861 3.067558,0.631 6.249535,0.70747 9.337412,0.16433 3.11597,-0.54858 4.64103,-0.0645 6.99596,2.05104 5.90561,5.30536 2.87011,2.73971 4.36562,4.90823 0.74464,2.73792 0.75222,5.17989 1.64744,7.80107 0.90601,2.58242 2.43029,4.93682 4.41524,6.82232 1.99679,1.87202 4.43802,3.25269 7.06934,4.00906 2.60494,0.71836 5.37273,0.83644 8.02483,0.30024 4.17364,-0.84735 8.02396,-3.28265 10.49186,-6.76961 3.56505,-4.86484 4.21177,-11.65861 1.63453,-17.11058 -1.41815,-3.06982 -3.7785,-5.69195 -6.66884,-7.44296 -2.3652,-1.43821 -5.08653,-2.2751 -7.84965,-2.44378 -0.76417,-0.0681 -1.53638,0.0143 -2.30322,0.0103 -1.77324,-0.32269 -3.37405,-1.32408 -5.48235,-4.19303 -2.17442,-2.9589 -2.09318,-6.8895 -1.99885,-11.46286 0.20377,-6.29102 -2.0204,-11.78122 0.82011,-15.42232 1.16543,-1.4939 1.7827,-3.34019 5.26634,-4.32015 5.00023,-0.74839 8.47604,-1.44019 11.05566,-4.98729 3.01172,-3.95343 3.35655,-9.69222 0.84077,-13.97796 -1.71883,-2.98822 -4.66176,-5.25061 -8.01811,-6.06998 -1.04496,-0.27761 -2.12648,-0.37675 -3.20601,-0.38603 z m -29.444711,27.80864 a 17.457786,17.32847 0 0 1 14.109731,7.96695 17.457786,17.32847 0 0 1 -5.15007,23.85901 17.457786,17.32847 0 0 1 -24.080701,-4.90616 17.457786,17.32847 0 0 1 4.736145,-23.94376 l 0.502295,-0.32556 a 17.457786,17.32847 0 0 1 9.8826,-2.65048 z m 30.240531,33.02279 1.18546,0.11782 c -0.4084,-0.0159 -0.80094,-0.052 -1.18546,-0.11782 z" />
      <path
         style="fill:#000000;stroke:#000000;stroke-width:0.264583px;stroke-linecap:butt;stroke-linejoin:miter;stroke-opacity:1"
         d="m 102.67765,202.51033 c 1.55577,-1.26543 3.41729,-0.39057 4.65541,-3.87951 0,0 0.99846,-6.04726 -0.38795,-8.53492 -9.067676,-16.2703 -31.249733,4.29793 -11.638525,13.19033 2.758761,-0.64659 3.965718,-1.29317 4.784725,-3.87951 -15.486368,0.2702 -5.047774,-18.0792 1.93976,-7.75901 1.70626,2.52005 0.84455,10.86262 0.64658,10.86262 z"
         id="path7912"
         sodipodi:nodetypes="ccsccsc" />
    </g>
  </g>
</svg>
