<?xml version="1.0" encoding="UTF-8" standalone="no"?>
<!-- Created with Inkscape (http://www.inkscape.org/) -->

<svg
   width="210mm"
   height="297mm"
   viewBox="0 0 210 297"
   version="1.1"
   id="svg17577"
   sodipodi:docname="logo11.svg"
   inkscape:version="1.1 (c68e22c387, 2021-05-23)"
   inkscape:export-filename="C:\Users\Manuel\Documents\ESTUDIOS\ESCUELA-VIRGEN-DEL-GUADALUPE\2 DAW\DIW\EDICION DE IMAGENES\INKSCAPE\logo11.png"
   inkscape:export-xdpi="96"
   inkscape:export-ydpi="96"
   xmlns:inkscape="http://www.inkscape.org/namespaces/inkscape"
   xmlns:sodipodi="http://sodipodi.sourceforge.net/DTD/sodipodi-0.dtd"
   xmlns="http://www.w3.org/2000/svg"
   xmlns:svg="http://www.w3.org/2000/svg">
  <sodipodi:namedview
     id="namedview17579"
     pagecolor="#ffffff"
     bordercolor="#666666"
     borderopacity="1.0"
     inkscape:pageshadow="2"
     inkscape:pageopacity="0.0"
     inkscape:pagecheckerboard="0"
     inkscape:document-units="mm"
     showgrid="false"
     inkscape:zoom="0.72337262"
     inkscape:cx="396.75265"
     inkscape:cy="561.95105"
     inkscape:window-width="1920"
     inkscape:window-height="1001"
     inkscape:window-x="-9"
     inkscape:window-y="-9"
     inkscape:window-maximized="1"
     inkscape:current-layer="layer1" />
  <defs
     id="defs17574" />
  <g
     inkscape:label="Capa 1"
     inkscape:groupmode="layer"
     id="layer1">
    <circle
       id="path17671"
       style="fill:#00ffff;stroke:#1e82bb;stroke-width:0.264583"
       cx="56.693348"
       cy="144.84236"
       r="0" />
    <circle
       id="path17673"
       style="fill:#00ffff;stroke:#1e82bb;stroke-width:0.264583"
       cx="56.693348"
       cy="144.84236"
       r="0" />
    <path
       style="color:#000000;fill:#000000;stroke-width:1.259;stroke-linecap:round;stroke-linejoin:round;-inkscape-stroke:none"
       d="m 90.949375,116.71854 c -2.497861,-0.68678 -4.734983,-0.33049 -5.251551,0.87564 l -27.02701,63.30429 c -0.397845,0.9299 0.0096,1.77557 1.122778,2.34199 1.099487,0.55938 2.782396,0.79267 4.657051,0.65632 3.77512,-0.27459 7.29164,-1.94755 7.996304,-3.7337 l 18.063918,-45.78061 11.425445,37.19636 c 0.35353,1.14493 2.06993,1.7937 4.05223,1.56192 1.92388,-0.22486 3.57166,-1.22086 3.98487,-2.38002 l 10.41006,-29.34559 7.01139,24.02403 c 0.25557,0.87388 1.29551,1.433 2.52682,1.37521 1.2036,-0.0565 2.29893,-0.69043 2.70559,-1.54933 l 9.38209,-19.87386 4.95543,15.38678 c 0.22285,0.6888 0.92915,1.1365 1.73869,1.11321 0.79443,-0.0229 1.5108,-0.4958 1.78526,-1.16898 l 6.21066,-15.2493 c 0.14353,-0.35378 0.1322,-0.76874 -0.0352,-1.15589 -0.16745,-0.38865 -0.47716,-0.72027 -0.86493,-0.92196 -0.39155,-0.20359 -0.82969,-0.2586 -1.21872,-0.15058 -0.39281,0.10903 -0.70252,0.3748 -0.85738,0.73916 l -4.65705,10.94124 -4.74015,-15.38439 c -0.23669,-0.77 -1.00846,-1.43148 -1.92375,-1.63783 -0.93418,-0.21038 -1.80415,0.0995 -2.14031,0.77491 l -9.36823,18.83569 -7.23927,-26.17026 c -0.28957,-1.04548 -1.54606,-2.0455 -3.04805,-2.40507 -1.54303,-0.36914 -2.9239,0.0349 -3.28347,0.98391 l -10.65696,28.24409 -10.91832,-37.96208 c -0.393186,-1.36149 -2.382033,-2.82117 -4.798185,-3.4853 z"
       id="path18798" />
    <text
       xml:space="preserve"
       style="font-style:normal;font-weight:normal;font-size:16.3819px;line-height:1.25;font-family:sans-serif;fill:#000000;fill-opacity:1;stroke:none;stroke-width:0.409547"
       x="55.998817"
       y="205.54184"
       id="text21215"
       transform="scale(1.0078289,0.99223195)"><tspan
         sodipodi:role="line"
         id="tspan21213"
         style="font-style:normal;font-variant:normal;font-weight:bold;font-stretch:normal;font-size:16.3819px;font-family:sans-serif;-inkscape-font-specification:'sans-serif, Bold';font-variant-ligatures:normal;font-variant-caps:normal;font-variant-numeric:normal;font-variant-east-asian:normal;stroke-width:0.409547"
         x="55.998817"
         y="205.54184">mutewatch</tspan></text>
  </g>
</svg>
