<?xml version="1.0" encoding="UTF-8" standalone="no"?>
<!-- Created with Inkscape (http://www.inkscape.org/) -->

<svg
   width="210mm"
   height="297mm"
   viewBox="0 0 210 297"
   version="1.1"
   id="svg5"
   inkscape:version="1.1 (c68e22c387, 2021-05-23)"
   sodipodi:docname="logo4.svg"
   xmlns:inkscape="http://www.inkscape.org/namespaces/inkscape"
   xmlns:sodipodi="http://sodipodi.sourceforge.net/DTD/sodipodi-0.dtd"
   xmlns="http://www.w3.org/2000/svg"
   xmlns:svg="http://www.w3.org/2000/svg">
  <sodipodi:namedview
     id="namedview7"
     pagecolor="#ffffff"
     bordercolor="#666666"
     borderopacity="1.0"
     inkscape:pageshadow="2"
     inkscape:pageopacity="0.0"
     inkscape:pagecheckerboard="0"
     inkscape:document-units="mm"
     showgrid="false"
     inkscape:zoom="0.72337262"
     inkscape:cx="182.47857"
     inkscape:cy="672.54412"
     inkscape:window-width="1920"
     inkscape:window-height="1001"
     inkscape:window-x="-9"
     inkscape:window-y="-9"
     inkscape:window-maximized="1"
     inkscape:current-layer="layer2" />
  <defs
     id="defs2">
    <rect
       x="96.76953"
       y="630.64647"
       width="19.354379"
       height="88.208499"
       id="rect4153" />
  </defs>
  <g
     inkscape:groupmode="layer"
     id="layer2"
     inkscape:label="Capa Figuras"
     style="display:inline;opacity:1">
    <text
       xml:space="preserve"
       transform="scale(0.26458333)"
       id="text4151"
       style="font-style:normal;font-variant:normal;font-weight:normal;font-stretch:normal;font-size:40px;line-height:1.25;font-family:Acens;-inkscape-font-specification:Acens;white-space:pre;shape-inside:url(#rect4153);fill:#000000;fill-opacity:1;stroke:none" />
    <g
       id="g22296">
      <g
         id="g22281">
        <path
           id="rect861"
           style="opacity:0.340974;fill:#008080;stroke:#000000;stroke-width:1.00157"
           d="m 96.769531,471.40234 v 69.1211 h 69.119139 v -69.1211 z m 179.042969,0 v 69.1211 h 69.12109 v -69.1211 z m 0,90.12305 v 69.12109 h 69.12109 v -69.12109 z m 179.04492,0 v 69.12109 h 69.1211 v -69.12109 z"
           transform="scale(0.26458333)" />
        <path
           id="rect861-2"
           style="display:inline;opacity:0.340974;fill:#999999;stroke:#000000;stroke-width:1.00157"
           d="m 186.29102,471.40234 v 69.1211 h 69.12109 v -69.1211 z m 179.04492,0 v 69.1211 h 69.12109 v -69.1211 z m 89.52148,0 v 69.1211 h 69.1211 v -69.1211 z m 89.52344,0 v 69.1211 H 613.5 v -69.1211 z m 89.52148,0 v 69.1211 h 69.1211 v -69.1211 z M 96.769531,561.52539 v 69.12109 h 69.119139 v -69.12109 z m 89.521489,0 v 69.12109 h 69.12109 v -69.12109 z m 179.04492,0 v 69.12109 h 69.12109 v -69.12109 z m 179.04492,0 v 69.12109 H 613.5 v -69.12109 z m 89.52148,0 v 69.12109 h 69.1211 v -69.12109 z"
           transform="scale(0.26458333)" />
      </g>
      <g
         id="g22277"
         transform="matrix(0.99137556,0,0,1,1.6021145,0)">
        <g
           aria-label="EIGHTY"
           transform="scale(1.5432209,0.64799536)"
           id="text6909"
           style="font-size:25.74px;line-height:1.25;font-family:Acens;-inkscape-font-specification:Acens;stroke-width:0.6435">
          <path
             d="m 28.0137,279.38416 -0.930059,4.52461 H 15.168837 v -0.50274 q 1.231699,-0.12568 1.659023,-0.50273 0.553008,-0.55301 0.553008,-2.08635 V 268.5251 q 0,-1.60875 -0.578145,-2.13663 -0.402187,-0.35191 -1.633886,-0.47759 v -0.50274 h 11.71371 l 0.150821,3.77051 H 26.55577 q -0.276504,-1.91039 -0.879785,-2.41312 -0.628418,-0.50274 -2.563945,-0.50274 h -3.393457 q -0.502735,0 -0.653555,0.12568 -0.251367,0.22623 -0.251367,0.82952 v 6.46013 h 3.845918 q 1.432793,0 1.935527,-0.55301 0.377051,-0.45246 0.578145,-2.03607 h 0.477597 v 6.25904 h -0.477597 q -0.201094,-1.70929 -0.653555,-2.16175 -0.452461,-0.4776 -1.860117,-0.4776 h -3.845918 v 6.98801 q 0,0.90492 0.653554,1.15628 0.628418,0.2011 3.2175,0.2011 2.111485,0 3.091817,-0.7541 0.980332,-0.7541 1.784707,-2.91586 z"
             id="path15023" />
          <path
             d="m 38.04325,283.90877 h -7.163964 v -0.50274 q 1.960664,-0.0754 2.438261,-0.55301 0.452461,-0.50273 0.452461,-2.13662 v -12.06562 q 0,-1.68416 -0.452461,-2.16176 -0.427324,-0.42732 -2.438261,-0.55301 v -0.50273 h 7.163964 v 0.50273 q -1.935527,0.10055 -2.438261,0.55301 -0.452461,0.4776 -0.452461,2.16176 v 12.06562 q 0,1.60875 0.502734,2.11149 0.527871,0.4776 2.387988,0.57814 z"
             id="path15025" />
          <path
             d="m 53.778836,274.53277 q -0.904922,0.12568 -1.131152,0.32678 -0.427324,0.42732 -0.427324,1.80984 v 5.42953 q 0,0.60328 -1.281973,1.33225 -1.332246,0.80437 -2.790176,0.80437 -3.669961,0 -5.530078,-2.96613 -1.633886,-2.53881 -1.633886,-6.93773 0,-3.6951 1.809843,-6.40987 1.935528,-2.94099 4.876524,-2.94099 1.181425,0 2.262304,0.55301 1.080879,0.50273 1.256836,0.50273 0.603281,0 0.804375,-1.05574 H 52.522 l 0.175957,5.65576 H 52.22036 q -0.628418,-2.2623 -1.281973,-3.26777 -1.106016,-1.68416 -2.991269,-1.68416 -1.910391,0 -3.418594,1.86011 -1.960664,2.51368 -1.960664,7.33993 0,3.89619 1.68416,6.33445 1.633887,2.31258 4.072148,2.31258 1.080879,0 1.860118,-0.55301 0.728964,-0.57815 0.728964,-1.40766 v -4.57488 q 0,-1.60875 -0.452461,-2.06121 -0.30164,-0.27651 -1.533339,-0.40219 v -0.45246 h 4.851386 z"
             id="path15027" />
          <path
             d="m 66.648837,283.90877 h -5.102754 v -0.50274 q 1.30711,-0.15082 1.68416,-1.08088 0.175957,-0.47759 0.175957,-2.06121 V 274.759 h -6.535546 v 5.85686 q 0,1.48306 0.37705,2.08634 0.402188,0.55301 1.558477,0.70383 v 0.50274 h -5.027344 v -0.50274 q 1.156289,-0.12568 1.45793,-0.80437 0.22623,-0.50274 0.22623,-2.33772 v -11.88966 q 0,-1.40766 -0.175957,-1.7093 -0.251367,-0.60328 -1.508203,-0.77924 v -0.4776 h 5.027344 v 0.4776 q -1.231699,0.17596 -1.558477,0.52787 -0.37705,0.45246 -0.37705,1.96067 v 5.4798 H 63.4062 v -5.4798 q 0,-1.53334 -0.37705,-1.98581 -0.301641,-0.35191 -1.483067,-0.50273 v -0.4776 h 5.102754 v 0.4776 q -1.181426,0.17596 -1.45793,0.52787 -0.37705,0.45246 -0.37705,1.96067 v 12.24158 q 0,1.5082 0.37705,2.08634 0.326778,0.55301 1.45793,0.70383 z"
             id="path15029" />
          <path
             d="m 79.443426,269.90761 h -0.527871 q -0.351914,-2.31257 -1.156289,-2.96613 -0.653555,-0.57814 -2.614219,-0.57814 h -1.307109 v 14.25252 q 0,1.48306 0.502734,2.11148 0.527871,0.57815 1.910391,0.67869 v 0.50274 h -6.233907 v -0.50274 q 1.483067,-0.12568 1.960664,-0.82951 0.402188,-0.57814 0.402188,-2.31258 v -13.9006 h -1.357383 q -1.935527,0 -2.589082,0.60328 -0.779238,0.62842 -1.156289,2.94099 h -0.527871 l 0.22623,-4.49947 h 12.266719 z"
             id="path15031" />
          <path
             d="m 92.388835,265.98629 q -0.754102,0.0503 -1.156289,0.42732 -0.553008,0.52787 -1.332246,2.23717 l -3.192363,6.86232 v 5.10276 q 0,1.58361 0.427324,2.18689 0.452461,0.55301 1.784707,0.60328 v 0.50274 h -5.881992 v -0.50274 q 1.533339,-0.10054 1.960664,-0.95519 0.251367,-0.52787 0.251367,-2.1869 v -4.7257 l -2.815313,-6.00768 q -1.181425,-2.48853 -1.784707,-3.14209 -0.37705,-0.40218 -1.131152,-0.40218 v -0.57815 h 5.027344 v 0.57815 q -1.60875,0.12568 -1.60875,0.98033 0,0.45246 0.377051,1.18142 l 3.016406,6.18364 3.041543,-6.435 q 0.276504,-0.60328 0.276504,-1.10602 0,-0.80437 -1.281973,-0.80437 v -0.57815 h 4.021875 z"
             id="path15033" />
        </g>
        <text
           xml:space="preserve"
           style="font-style:normal;font-weight:normal;font-size:23.3897px;line-height:1.25;font-family:sans-serif;fill:#000000;fill-opacity:1;stroke:none;stroke-width:0.584744"
           x="106.39462"
           y="248.8297"
           id="text17460"
           transform="scale(1.3478324,0.74193201)"><tspan
             sodipodi:role="line"
             id="tspan17458"
             style="font-style:normal;font-variant:normal;font-weight:bold;font-stretch:normal;font-family:sans-serif;-inkscape-font-specification:'sans-serif Bold';stroke-width:0.584744"
             x="106.39462"
             y="248.8297">20</tspan></text>
      </g>
    </g>
  </g>
</svg>
